# xmcd
#
# Track frame offsets: 
#        150
#        51544
#        61706
#        122011
#        136256
#        202766
#
# Disc length: 3549 seconds
#
# Revision: 0
# Processed by: cddbd v1.5.2PL0 Copyright (c) Steve Scherf et al.
# Submitted via: ExactAudioCopy v1.0b3
#
DISCID=4e0ddb06
DTITLE=Thy Grave - Anhedonia
DYEAR=2013
DGENRE=Sludge Metal
TTITLE0=Haudan
TTITLE1=Thy Grave
TTITLE2=Abomination
TTITLE3=No Teeth (Terminator 2 Cover)
TTITLE4=Liha (Loinen Cover)
TTITLE5=Anhedonia
EXTD=
EXTT0=
EXTT1=
EXTT2=
EXTT3=
EXTT4=
EXTT5=
PLAYORDER=
